<svg width="93" height="93" viewBox="0 0 93 93" fill="none" xmlns="http://www.w3.org/2000/svg">
<circle cx="46.5" cy="46.5" r="38.5" fill="#E25038"/>
<path d="M34.3806 48.6667C34.3926 48.6972 35.8496 51.1138 35.8496 51.0963C35.8496 43.5929 45.2403 40.1566 45.2403 34.351C45.2403 33.5889 45.0369 32.8063 44.5699 32C46.5316 32.9133 58.9895 40.2981 53.1735 51.6895C54.1194 51.4402 55.5193 51.0005 56.9898 50.0842C57.1989 55.4843 54.1687 59.3381 49.8928 61C50.3028 59.9938 50.4718 58.7787 50.4718 57.5455C50.4718 55.3155 50.1191 53.7256 49.5246 52.3948C48.5719 53.4536 47.4753 55.1263 46.7857 56.6436C45.2699 55.8877 43.0565 54.0018 42.2557 51.3213C41.3745 52.8181 40.7519 54.8265 40.7519 57.658C40.7519 58.8044 40.9121 59.9178 41.2896 60.8748C36.7219 59.7578 32.7275 55.5988 34.3806 48.6667Z" fill="white"/>
<circle cx="46.5" cy="46.5" r="46" stroke="#E25038" stroke-opacity="0.37"/>
</svg>
