<svg width="93" height="93" viewBox="0 0 93 93" fill="none" xmlns="http://www.w3.org/2000/svg">
<circle cx="46.5" cy="46.5" r="38.5" fill="#E25038"/>
<circle cx="46.5" cy="46.5" r="46" stroke="#E25038" stroke-opacity="0.37"/>
<path d="M59 58.3465C58.0505 59.03 53.0033 62.4471 46.9997 62.4471C41.0037 62.4471 35.9502 59.03 35 58.3465C35.0731 53.8593 37.6177 51.4228 43.0996 50.7043C43.1861 50.7844 43.2722 50.8628 43.3614 50.9391C43.5637 53.0029 45.289 54.6267 47.4039 54.6267C49.5212 54.6267 51.2475 53.0025 51.4491 50.9384C51.4981 50.8968 51.5436 50.8523 51.5923 50.8079C56.5926 51.6391 58.93 54.0517 59 58.3465ZM37.041 43.8712C37.7189 44.3878 38.8685 44.856 40.3258 45.214C40.2106 44.5449 40.1319 43.8688 40.1319 43.1807C40.1319 42.9382 40.1463 42.696 40.1603 42.4528C38.4759 42.8938 37.4785 43.4299 37.041 43.8712ZM56.9471 43.8625C56.6706 43.5877 56.0347 43.1352 54.6604 42.6925C54.6671 42.8549 54.6779 43.0187 54.6779 43.1807C54.6779 43.7876 54.6174 44.3846 54.5271 44.9743C55.5836 44.6537 56.4116 44.274 56.9471 43.8625ZM41.4089 42.1746C41.3582 42.184 41.2997 42.191 41.249 42.2005C41.1556 42.2194 41.0768 42.24 40.9865 42.2603C40.962 42.562 40.9484 42.8689 40.9484 43.1807C40.9484 44.1085 41.0625 45.002 41.2689 45.8391C41.3078 45.9945 41.3729 46.1306 41.418 46.2825C41.53 46.6583 41.6371 47.037 41.7862 47.3842C42.1929 48.3329 42.7367 49.1624 43.375 49.8399C43.3799 49.8441 43.3824 49.8497 43.3866 49.8539C43.388 49.8483 43.3894 49.8441 43.3908 49.8378C43.4625 49.4266 43.5987 49.0276 43.7954 48.6553C43.5686 48.4043 43.3533 48.1349 43.1609 47.8381C42.8399 47.345 42.5715 46.799 42.3612 46.2121C42.0214 45.2557 41.8492 44.2362 41.8492 43.1807C41.8492 42.8147 41.8726 42.4493 41.9143 42.0878C41.7449 42.1175 41.5699 42.1427 41.4089 42.1746ZM53.0936 47.2186C53.2361 46.8683 53.3372 46.4876 53.4418 46.1106C53.4835 45.9567 53.5479 45.816 53.5853 45.6585C53.7645 44.8739 53.8611 44.042 53.8611 43.1804C53.8611 42.9291 53.8257 42.6922 53.8089 42.4475C53.7197 42.4238 53.6473 42.4007 53.5535 42.3772C53.5024 42.3657 53.4436 42.3562 53.3935 42.344C53.2396 42.3083 53.0719 42.2782 52.9106 42.2449C52.9428 42.5543 52.9617 42.8672 52.9617 43.18C52.9617 44.1851 52.8035 45.1615 52.4938 46.0781C52.2936 46.6737 52.0346 47.2274 51.7221 47.7264C51.5111 48.0645 51.2685 48.3679 51.0145 48.6514C51.2122 49.0311 51.3529 49.4364 51.4243 49.8556C52.1067 49.1375 52.6782 48.2409 53.0936 47.2186ZM51.7189 45.8184C52.0024 44.9841 52.1442 44.0969 52.1442 43.1807C52.1442 42.8983 52.1267 42.6148 52.0994 42.3349C52.091 42.2491 52.0759 42.1637 52.0647 42.078C51.9265 42.0559 51.7812 42.0381 51.6423 42.0171C50.8801 41.903 50.0895 41.8089 49.2629 41.7525C48.5157 41.7028 47.7545 41.6776 46.9993 41.6776C46.4981 41.6776 46.005 41.6899 45.5203 41.7112C44.7186 41.7452 43.9423 41.8159 43.1857 41.9061C43.0464 41.9229 42.9026 41.9359 42.7637 41.9541C42.7612 41.9639 42.7605 41.973 42.7598 41.9831C42.7455 42.0783 42.7269 42.1735 42.7175 42.2708C42.6853 42.5714 42.665 42.8756 42.665 43.1811C42.665 44.1435 42.8214 45.0719 43.1308 45.9388C43.3173 46.4648 43.5581 46.953 43.844 47.394C43.978 47.5984 44.1355 47.7719 44.2867 47.9515C44.3725 47.8486 44.447 47.7408 44.5422 47.6456C44.7574 47.4318 44.9912 47.2365 45.2495 47.0762C45.8987 46.672 46.6448 46.4582 47.4032 46.4582C48.1346 46.4582 48.8538 46.6562 49.4841 47.0307C49.7724 47.2011 50.0356 47.4097 50.2732 47.6432C50.366 47.7359 50.4346 47.8503 50.5193 47.9511C50.696 47.7411 50.878 47.5375 51.0285 47.2949C51.3084 46.8501 51.5398 46.3539 51.7189 45.8184ZM42.9092 38.832C43.4142 38.7715 43.9378 38.74 44.4571 38.7022C44.427 38.172 44.3885 37.6471 44.3885 37.1015V37.0273V37.0266C44.3896 36.2769 44.4221 35.6043 44.4844 35.0293C44.5075 34.8109 44.5439 34.6258 44.5772 34.4274C42.3955 35.2862 40.7045 37.0976 40.0115 39.3566C40.4227 39.2552 40.85 39.1596 41.3043 39.0756C41.8215 38.9811 42.3608 38.8999 42.9092 38.832ZM50.4234 37.0266V37.1008V37.1015C50.4234 37.6649 50.3814 38.2095 50.3474 38.7572C50.907 38.8117 51.4558 38.8744 51.9804 38.9552C52.5347 39.041 53.0768 39.1428 53.5913 39.258C54.0438 39.3598 54.4634 39.4739 54.8648 39.5957C54.2223 37.2267 52.4917 35.3184 50.2347 34.4288C50.2659 34.6279 50.3033 34.8127 50.3264 35.0286C50.388 35.6103 50.4213 36.2808 50.4234 37.0266ZM45.2666 38.6347C45.3968 38.6277 45.5308 38.6284 45.661 38.6249C45.8021 38.6196 45.9442 38.6189 46.0866 38.614C46.3911 38.6084 46.6941 38.5934 46.9997 38.5934C47.5746 38.5934 48.1468 38.6266 48.7201 38.655C48.8569 38.662 48.992 38.662 49.1274 38.6697C49.2699 38.6795 49.4141 38.6749 49.5548 38.6858C49.5856 38.1717 49.6069 37.6471 49.6069 37.1015C49.6069 37.0766 49.6069 37.0532 49.6069 37.0283C49.6034 36.2899 49.5719 35.6564 49.5142 35.1144C49.4767 34.7455 49.4242 34.4207 49.3637 34.1327C49.3283 33.9658 49.287 33.8216 49.244 33.6798C49.1932 33.508 49.139 33.3537 49.0802 33.214C48.6763 32.2642 48.0782 32 47.4035 32C46.7319 32 46.1328 32.2642 45.7296 33.2144C45.6708 33.354 45.6148 33.508 45.5644 33.6802C45.5221 33.8219 45.4808 33.9661 45.4465 34.133C45.3846 34.4207 45.3342 34.7458 45.2964 35.1147C45.2379 35.6568 45.2064 36.2902 45.204 37.0287C45.204 37.0535 45.204 37.077 45.204 37.1018C45.204 37.6292 45.2243 38.1384 45.253 38.6354C45.2572 38.6354 45.2624 38.6354 45.2666 38.6347ZM36.2039 43.6021C36.7561 42.7863 38.2221 42.0797 40.2463 41.587C40.3832 41.5541 40.5274 41.5243 40.6691 41.4942C40.8087 41.4627 40.9456 41.4298 41.0905 41.4001C41.2259 41.3732 41.375 41.3539 41.5164 41.3287C41.6949 41.2965 41.8775 41.2661 42.062 41.2363C42.2062 41.2132 42.3395 41.1852 42.4872 41.1639C42.6268 41.1446 42.777 41.1317 42.9194 41.1149C43.0601 41.097 43.2043 41.0813 43.3498 41.0655C44.0361 40.9889 44.7434 40.9266 45.486 40.8944C45.9812 40.8737 46.4855 40.8608 46.9997 40.8608C47.7944 40.8608 48.5696 40.8884 49.3175 40.9385C50.0776 40.9889 50.7947 41.0725 51.489 41.1695C51.6329 41.1901 51.7781 41.2097 51.9202 41.2325C52.0612 41.2552 52.2124 41.2724 52.3503 41.2958C52.5011 41.3217 52.6324 41.3567 52.7779 41.385C52.9627 41.42 53.1437 41.4578 53.3218 41.496C53.4607 41.5285 53.6144 41.5534 53.7474 41.5849C53.8898 41.6202 54.0252 41.6577 54.1635 41.6962C54.308 41.7347 54.4518 41.7739 54.5918 41.8159C56.1793 42.2873 57.323 42.9046 57.7972 43.6021C57.8847 43.4694 57.9466 43.3344 57.9865 43.1982C58.0173 43.0908 58.04 42.9837 58.04 42.8752C58.04 42.1172 57.2551 41.4193 55.9409 40.8486C55.802 40.7877 55.6557 40.7282 55.5042 40.6708C55.3621 40.6165 55.2204 40.5619 55.0678 40.5105C54.5666 40.3408 54.0119 40.1892 53.4124 40.0541C52.9221 39.9442 52.4007 39.8455 51.8547 39.7616C51.3627 39.686 50.8423 39.6258 50.3114 39.5743C50.1773 39.5596 50.0416 39.5484 49.9047 39.5369C49.7689 39.5246 49.6366 39.5103 49.4981 39.5001C49.3672 39.4903 49.2233 39.4931 49.0903 39.4847C48.9563 39.477 48.8167 39.477 48.6816 39.4704C48.1272 39.4424 47.5795 39.4091 46.9997 39.4091C46.7015 39.4091 46.4166 39.4228 46.1247 39.4301C45.9879 39.4343 45.8504 39.4343 45.7156 39.4406C45.5809 39.4441 45.4395 39.4424 45.3062 39.449C45.1662 39.456 45.0391 39.4767 44.8988 39.4847C44.7609 39.4935 44.6304 39.5075 44.4935 39.5183C43.991 39.5561 43.4804 39.5859 43.0076 39.6443C42.4662 39.7087 41.9461 39.7885 41.4492 39.8791C40.8574 39.9883 40.2988 40.1126 39.7826 40.2529C39.6301 40.2946 39.4901 40.3408 39.3448 40.3855C39.1968 40.4303 39.0442 40.4727 38.9053 40.521C37.0788 41.1397 35.9589 41.9653 35.9589 42.8749C35.9589 42.9833 35.9817 43.0904 36.0132 43.1958C36.0541 43.3347 36.1139 43.4688 36.2039 43.6021ZM50.5879 49.8353C50.618 49.9718 50.6421 50.1132 50.6536 50.2553C50.6624 50.3505 50.6722 50.4446 50.6722 50.5412V50.5426C50.6722 50.5885 50.6613 50.6301 50.6599 50.6767C50.6536 50.8212 50.6421 50.9633 50.6162 51.1033C50.5767 51.3311 50.5179 51.5523 50.4321 51.7623C49.9478 52.9626 48.7782 53.811 47.4039 53.811C46.033 53.811 44.8624 52.9623 44.3774 51.7623C44.2934 51.5523 44.2332 51.3314 44.1936 51.1033C44.1639 50.9339 44.1446 50.7617 44.1418 50.5867C44.1418 50.5706 44.1376 50.557 44.1376 50.5426V50.5412C44.1376 50.4194 44.1492 50.2973 44.1625 50.178C44.1779 50.0341 44.2048 49.8941 44.2395 49.758C44.2818 49.5855 44.3354 49.4154 44.4039 49.2547C44.4589 49.1267 44.5233 49.0003 44.5947 48.8806C44.6643 48.7609 44.7609 48.6637 44.8442 48.5545C44.9289 48.4463 45.0045 48.3315 45.1011 48.2349C45.2775 48.06 45.4706 47.9007 45.6827 47.7695C46.1825 47.4559 46.7711 47.2739 47.4039 47.2739C48.0128 47.2739 48.5818 47.4437 49.069 47.7334C49.3049 47.8717 49.5187 48.0407 49.7126 48.2328C49.8095 48.3294 49.8799 48.4484 49.9653 48.5555C50.0489 48.6651 50.1472 48.7609 50.2169 48.8806C50.2865 49.0007 50.3495 49.1267 50.4069 49.2547C50.4867 49.4388 50.5427 49.6355 50.5879 49.8353ZM49.1873 50.5447C49.1873 50.5433 49.1873 50.5426 49.1873 50.5426C49.1873 50.3988 49.1656 50.2616 49.1344 50.1265C49.0973 49.9774 49.0421 49.8353 48.9728 49.7038C48.9668 49.6933 48.9644 49.6803 48.9588 49.6702C48.6525 49.1267 48.0733 48.7592 47.4039 48.7592C46.7382 48.7592 46.158 49.1267 45.8518 49.6702L45.8507 49.6716C45.7786 49.7989 45.7223 49.9389 45.6827 50.0856C45.6477 50.2168 45.632 50.3557 45.6274 50.4989C45.6274 50.5132 45.6225 50.5272 45.6225 50.543C45.6225 50.8859 45.7223 51.2058 45.8903 51.4774C46.2052 51.9866 46.7652 52.3253 47.4039 52.3253C48.0467 52.3253 48.607 51.9866 48.921 51.4774C49.0889 51.2055 49.1873 50.8866 49.1873 50.5447ZM48.2515 50.0835C48.2501 50.0789 48.2501 50.0751 48.2473 50.0716C48.1419 49.8843 47.9757 49.7475 47.7867 49.6639C47.7444 49.6453 47.7045 49.6215 47.6583 49.611C47.5767 49.5876 47.4921 49.5757 47.4035 49.5757C47.3181 49.5757 47.2317 49.5872 47.1505 49.611C47.1123 49.6198 47.0791 49.6408 47.0434 49.6551C46.9241 49.7062 46.811 49.7706 46.7186 49.8654C46.6577 49.9253 46.6063 49.9946 46.5629 50.0705C46.4911 50.1997 46.4569 50.3372 46.4464 50.4817C46.4457 50.5034 46.4401 50.522 46.4401 50.5433C46.4401 50.7211 46.4873 50.8929 46.5832 51.0469C46.5839 51.0483 46.5839 51.0483 46.5839 51.0483C46.7172 51.2646 46.9241 51.4158 47.1603 51.4777C47.2387 51.4987 47.3206 51.5089 47.4039 51.5089C47.4886 51.5089 47.5715 51.4987 47.6499 51.4777C47.8868 51.4158 48.0922 51.265 48.2273 51.0483C48.3232 50.8929 48.3719 50.7218 48.3719 50.5433C48.3719 50.5276 48.367 50.5136 48.3652 50.4992C48.3593 50.3519 48.3232 50.2112 48.2515 50.0835Z" fill="white"/>
</svg>
