<svg width="93" height="93" viewBox="0 0 93 93" fill="none" xmlns="http://www.w3.org/2000/svg">
<circle cx="46.5" cy="46.5" r="38.5" fill="#E25038"/>
<circle cx="46.5" cy="46.5" r="46" stroke="#E25038" stroke-opacity="0.37"/>
<path d="M34.7055 36.35H35.1394C36.2909 36.7764 37.1711 37.5824 38.0514 38.3983C38.7638 39.0464 39.4381 39.7352 40.0708 40.4614C40.6908 41.1719 41.0255 42.087 41.0102 43.0297C41.0103 43.3504 40.963 43.6694 40.8697 43.9762C40.7461 44.4003 40.4856 44.7716 40.1287 45.032C39.7719 45.2924 39.3388 45.4273 38.8971 45.4157H38.5273C37.9774 50.02 42.9655 55.0286 47.564 54.4642C47.5788 54.2177 47.564 53.9835 47.6084 53.7469C47.7957 52.4948 49.1494 51.738 50.1603 51.8095C50.6919 51.8458 51.2058 52.0154 51.6545 52.3025C52.1209 52.5861 52.5607 52.9112 52.9687 53.2736C54.0155 54.2234 54.9684 55.2717 55.8141 56.404C56.1205 56.8697 56.3996 57.3528 56.65 57.8509V58.2871C56.3686 58.7078 56.0004 59.0633 55.57 59.3298C54.4088 60.1748 53.0508 60.7093 51.6249 60.8826C48.9349 61.2499 46.3755 60.7347 43.9394 59.6256C38.9144 57.3382 35.3095 53.6384 33.1521 48.5485C32.3115 46.6113 31.922 44.5084 32.0129 42.3987C32.119 40.2075 32.797 38.2356 34.343 36.6187C34.456 36.519 34.5772 36.4291 34.7055 36.35V36.35Z" fill="white"/>
<path d="M53.0247 37.2719C52.8232 37.2719 52.6553 37.3391 52.521 37.4566C52.3867 37.5741 52.3027 37.7756 52.3027 38.0274V41.9562C52.3027 42.208 52.3699 42.4095 52.521 42.527C52.6553 42.6445 52.84 42.7117 53.0247 42.7117C53.2262 42.7117 53.3941 42.6445 53.5284 42.527C53.6627 42.4095 53.7466 42.208 53.7466 41.9562V38.0106C53.7466 37.7588 53.6795 37.5573 53.5284 37.4398C53.3941 37.3223 53.2262 37.2719 53.0247 37.2719Z" fill="white"/>
<path d="M53.0248 32C48.626 32 45.0498 35.5762 45.0498 39.975C45.0498 41.5028 45.4863 42.9299 46.2251 44.1556L45.0498 47.95L49.0121 46.8587C50.1874 47.5471 51.5641 47.95 53.0248 47.95C57.4236 47.95 60.9998 44.3738 60.9998 39.975C60.9998 35.5762 57.4236 32 53.0248 32ZM50.775 38.3968H49.7173V38.1617C49.7173 37.9267 49.6669 37.7084 49.5494 37.5237C49.4319 37.3391 49.2472 37.2551 48.9785 37.2551C48.8274 37.2551 48.7099 37.2887 48.626 37.3391C48.5252 37.3894 48.4581 37.4734 48.4077 37.5573C48.3573 37.6413 48.3238 37.742 48.2902 37.8595C48.2734 37.9771 48.2566 38.0946 48.2566 38.2121C48.2566 38.3632 48.2566 38.4807 48.2734 38.5815C48.2902 38.6822 48.307 38.7662 48.3573 38.8501C48.3909 38.9173 48.4581 38.9844 48.542 39.0348C48.626 39.0852 48.7267 39.1523 48.8778 39.2027L49.6837 39.5217C49.9188 39.6056 50.1034 39.7232 50.2545 39.8407C50.4056 39.9582 50.5064 40.1093 50.5903 40.2604C50.6743 40.4283 50.7246 40.613 50.7582 40.8313C50.7918 41.0495 50.7918 41.2846 50.7918 41.5532C50.7918 41.8722 50.7582 42.1576 50.6911 42.4263C50.6239 42.6949 50.5232 42.9299 50.3889 43.1146C50.2545 43.2993 50.0531 43.4504 49.818 43.5679C49.583 43.6855 49.2975 43.7358 48.945 43.7358C48.6931 43.7358 48.4413 43.6855 48.223 43.6015C48.0048 43.5176 47.8033 43.3833 47.6522 43.2322C47.4843 43.0811 47.3668 42.8964 47.266 42.6781C47.1653 42.4598 47.1317 42.2248 47.1317 41.9729V41.57H48.1894V41.9058C48.1894 42.1073 48.2398 42.2752 48.3573 42.4263C48.4749 42.5774 48.6595 42.6613 48.9282 42.6613C49.1129 42.6613 49.2472 42.6277 49.3479 42.5774C49.4486 42.527 49.5326 42.4598 49.583 42.3591C49.6333 42.2584 49.6669 42.1408 49.6837 42.0065C49.7005 41.8722 49.7005 41.7211 49.7005 41.5532C49.7005 41.3517 49.7005 41.2006 49.6837 41.0663C49.6669 40.9488 49.6333 40.8481 49.5998 40.7641C49.5494 40.6802 49.499 40.6298 49.4151 40.5794C49.3311 40.5291 49.2304 40.4787 49.0961 40.4283L48.3405 40.1429C47.8872 39.9582 47.5682 39.7064 47.4171 39.4042C47.266 39.1019 47.1821 38.699 47.1821 38.2457C47.1821 37.9603 47.2156 37.7084 47.2996 37.4566C47.3835 37.2047 47.4843 36.9865 47.6354 36.8018C47.7865 36.6171 47.9712 36.4828 48.2062 36.3653C48.4413 36.2645 48.7099 36.1974 49.0121 36.1974C49.2808 36.1974 49.5158 36.2477 49.7341 36.3485C49.9523 36.4492 50.137 36.5667 50.3049 36.7346C50.456 36.9025 50.5735 37.0704 50.6575 37.2719C50.7414 37.4734 50.775 37.6748 50.775 37.8763V38.3968ZM54.8045 41.9394C54.8045 42.2416 54.7541 42.5102 54.6534 42.7453C54.5526 42.9635 54.4183 43.165 54.2336 43.3161C54.0658 43.4672 53.8643 43.5847 53.6628 43.6519C53.4445 43.7358 53.2431 43.7694 53.0248 43.7694C52.8065 43.7694 52.5883 43.7358 52.3868 43.6519C52.1685 43.5679 51.9839 43.4672 51.816 43.3161C51.6481 43.165 51.5138 42.9803 51.3962 42.7453C51.2955 42.527 51.2451 42.2584 51.2451 41.9394V38.0106C51.2451 37.7084 51.2955 37.4398 51.3962 37.2215C51.497 36.9865 51.6313 36.8018 51.816 36.6507C51.9839 36.4996 52.1853 36.3821 52.3868 36.3149C52.6051 36.2309 52.8065 36.1974 53.0248 36.1974C53.2431 36.1974 53.4613 36.2309 53.6628 36.3149C53.8811 36.3988 54.0658 36.4996 54.2336 36.6507C54.4015 36.8018 54.5359 36.9865 54.6534 37.2215C54.7541 37.4566 54.8045 37.7084 54.8045 38.0106V41.9394ZM57.6923 37.5237C57.5748 37.3391 57.3901 37.2551 57.1214 37.2551C56.9703 37.2551 56.8528 37.2887 56.7689 37.3391C56.6681 37.3894 56.601 37.4734 56.5506 37.5573C56.5002 37.6413 56.4666 37.742 56.4331 37.8595C56.4163 37.9771 56.3995 38.0946 56.3995 38.2121C56.3995 38.3632 56.3995 38.4807 56.4163 38.5815C56.4331 38.6822 56.4499 38.7662 56.5002 38.8501C56.5338 38.9173 56.601 38.9844 56.6849 39.0348C56.7689 39.0852 56.8696 39.1523 57.0207 39.2027L57.8266 39.5217C58.0616 39.6056 58.2463 39.7232 58.3974 39.8407C58.5485 39.9582 58.6493 40.1093 58.7332 40.2604C58.8172 40.4283 58.8675 40.613 58.9011 40.8313C58.9347 41.0495 58.9347 41.2846 58.9347 41.5532C58.9347 41.8722 58.9011 42.1576 58.834 42.4263C58.7668 42.6949 58.6661 42.9299 58.5318 43.1146C58.3974 43.2993 58.196 43.4504 57.9609 43.5679C57.7259 43.6855 57.4404 43.7358 57.0879 43.7358C56.836 43.7358 56.5842 43.6855 56.3659 43.6015C56.1476 43.5176 55.9462 43.3833 55.7951 43.2322C55.6272 43.0811 55.5096 42.8964 55.4089 42.6781C55.3082 42.4598 55.2746 42.2248 55.2746 41.9729V41.57H56.3323V41.9058C56.3323 42.1073 56.3827 42.2752 56.5002 42.4263C56.6178 42.5774 56.8024 42.6613 57.0711 42.6613C57.2558 42.6613 57.3901 42.6277 57.4908 42.5774C57.5915 42.527 57.6755 42.4598 57.7259 42.3591C57.7762 42.2584 57.8098 42.1408 57.8266 42.0065C57.8434 41.8722 57.8434 41.7211 57.8434 41.5532C57.8434 41.3517 57.8434 41.2006 57.8266 41.0663C57.8098 40.9488 57.7762 40.8481 57.7426 40.7641C57.6923 40.6802 57.6419 40.6298 57.558 40.5794C57.474 40.5291 57.3733 40.4787 57.239 40.4283L56.4834 40.1429C56.0301 39.9582 55.7111 39.7064 55.56 39.4042C55.4089 39.1019 55.325 38.699 55.325 38.2457C55.325 37.9603 55.3585 37.7084 55.4425 37.4566C55.5264 37.2047 55.6272 36.9865 55.7783 36.8018C55.9294 36.6171 56.1141 36.4828 56.3491 36.3653C56.5842 36.2645 56.8528 36.1974 57.155 36.1974C57.4236 36.1974 57.6587 36.2477 57.877 36.3485C58.0952 36.4492 58.2799 36.5667 58.4478 36.7346C58.5989 36.9025 58.7164 37.0704 58.8004 37.2719C58.8843 37.4734 58.9179 37.6748 58.9179 37.8763V38.3968H57.8602V38.1617C57.8602 37.9099 57.8098 37.7084 57.6923 37.5237Z" fill="white"/>
</svg>
