<svg width="93" height="93" viewBox="0 0 93 93" fill="none" xmlns="http://www.w3.org/2000/svg">
<circle cx="46.5" cy="46.5" r="38.5" fill="#E25038"/>
<path d="M47.4749 41.5687C47.1092 41.5687 46.8045 41.6906 46.5607 41.904C46.3169 42.1173 46.1646 42.483 46.1646 42.9401V50.0709C46.1646 50.528 46.2864 50.8937 46.5607 51.107C46.8045 51.3203 47.1397 51.4422 47.4749 51.4422C47.8406 51.4422 48.1453 51.3203 48.3891 51.107C48.6329 50.8937 48.7853 50.528 48.7853 50.0709V42.9096C48.7853 42.4525 48.6634 42.0868 48.3891 41.8735C48.1453 41.6602 47.8406 41.5687 47.4749 41.5687Z" fill="white"/>
<path d="M47.475 32C39.4909 32 33 38.4909 33 46.475C33 49.2481 33.7923 51.8384 35.1332 54.0629L33 60.95L40.1918 58.9692C42.3249 60.2186 44.8238 60.95 47.475 60.95C55.4591 60.95 61.95 54.4591 61.95 46.475C61.95 38.4909 55.4591 32 47.475 32ZM43.3915 43.6105H41.4717V43.1838C41.4717 42.7572 41.3803 42.3611 41.1669 42.0258C40.9536 41.6906 40.6184 41.5383 40.1308 41.5383C39.8566 41.5383 39.6433 41.5992 39.4909 41.6906C39.3081 41.7821 39.1862 41.9344 39.0947 42.0868C39.0033 42.2392 38.9424 42.422 38.8814 42.6353C38.8509 42.8486 38.8205 43.0619 38.8205 43.2753C38.8205 43.5495 38.8205 43.7628 38.8509 43.9457C38.8814 44.1285 38.9119 44.2809 39.0033 44.4333C39.0643 44.5552 39.1862 44.6771 39.3385 44.7685C39.4909 44.8599 39.6737 44.9818 39.948 45.0732L41.4107 45.6522C41.8374 45.8046 42.1726 46.0179 42.4468 46.2312C42.7211 46.4445 42.9039 46.7188 43.0563 46.9931C43.2087 47.2978 43.3001 47.633 43.3611 48.0292C43.422 48.4253 43.422 48.8519 43.422 49.3395C43.422 49.9185 43.3611 50.4366 43.2392 50.9242C43.1173 51.4117 42.9344 51.8384 42.6906 52.1736C42.4468 52.5088 42.0812 52.7831 41.6545 52.9964C41.2279 53.2097 40.7098 53.3011 40.0699 53.3011C39.6128 53.3011 39.1557 53.2097 38.7595 53.0573C38.3634 52.9049 37.9977 52.6612 37.7234 52.3869C37.4187 52.1126 37.2054 51.7774 37.0225 51.3813C36.8397 50.9851 36.7787 50.5585 36.7787 50.1014V49.37H38.6986V49.9795C38.6986 50.3452 38.79 50.6499 39.0033 50.9242C39.2166 51.1984 39.5518 51.3508 40.0394 51.3508C40.3746 51.3508 40.6184 51.2898 40.8013 51.1984C40.9841 51.107 41.1365 50.9851 41.2279 50.8023C41.3193 50.6194 41.3803 50.4061 41.4107 50.1623C41.4412 49.9185 41.4412 49.6443 41.4412 49.3395C41.4412 48.9738 41.4412 48.6996 41.4107 48.4558C41.3803 48.2425 41.3193 48.0596 41.2584 47.9073C41.1669 47.7549 41.0755 47.6635 40.9232 47.5721C40.7708 47.4806 40.5879 47.3892 40.3442 47.2978L38.9728 46.7797C38.1501 46.4445 37.5711 45.9874 37.2968 45.4389C37.0225 44.8904 36.8702 44.159 36.8702 43.3362C36.8702 42.8182 36.9311 42.3611 37.0835 41.9039C37.2358 41.4468 37.4187 41.0507 37.6929 40.7155C37.9672 40.3803 38.3024 40.1365 38.7291 39.9232C39.1557 39.7403 39.6433 39.6184 40.1918 39.6184C40.6794 39.6184 41.106 39.7098 41.5022 39.8927C41.8983 40.0755 42.2335 40.2888 42.5383 40.5936C42.8125 40.8983 43.0258 41.2031 43.1782 41.5687C43.3306 41.9344 43.3915 42.3001 43.3915 42.6658V43.6105ZM50.7052 50.0404C50.7052 50.5889 50.6138 51.0765 50.4309 51.5032C50.2481 51.8993 50.0043 52.265 49.6691 52.5393C49.3644 52.8135 48.9987 53.0268 48.633 53.1487C48.2368 53.3011 47.8712 53.3621 47.475 53.3621C47.0788 53.3621 46.6827 53.3011 46.317 53.1487C45.9208 52.9964 45.5856 52.8135 45.2809 52.5393C44.9762 52.265 44.7324 51.9298 44.5191 51.5032C44.3362 51.107 44.2448 50.6194 44.2448 50.0404V42.9096C44.2448 42.3611 44.3362 41.8735 44.5191 41.4773C44.7019 41.0507 44.9457 40.7155 45.2809 40.4412C45.5856 40.1669 45.9513 39.9536 46.317 39.8317C46.7132 39.6794 47.0788 39.6184 47.475 39.6184C47.8712 39.6184 48.2673 39.6794 48.633 39.8317C49.0292 39.9841 49.3644 40.1669 49.6691 40.4412C49.9738 40.7155 50.2176 41.0507 50.4309 41.4773C50.6138 41.9039 50.7052 42.3611 50.7052 42.9096V50.0404ZM55.9467 42.0258C55.7334 41.6906 55.3982 41.5383 54.9106 41.5383C54.6363 41.5383 54.423 41.5992 54.2706 41.6906C54.0878 41.7821 53.9659 41.9344 53.8745 42.0868C53.7831 42.2392 53.7221 42.422 53.6612 42.6353C53.6307 42.8486 53.6002 43.0619 53.6002 43.2753C53.6002 43.5495 53.6002 43.7628 53.6307 43.9457C53.6612 44.1285 53.6916 44.2809 53.7831 44.4333C53.844 44.5552 53.9659 44.6771 54.1183 44.7685C54.2706 44.8599 54.4535 44.9818 54.7277 45.0732L56.1905 45.6522C56.6171 45.8046 56.9523 46.0179 57.2266 46.2312C57.5008 46.4445 57.6837 46.7188 57.8361 46.9931C57.9884 47.2978 58.0798 47.633 58.1408 48.0292C58.2017 48.4253 58.2017 48.8519 58.2017 49.3395C58.2017 49.9185 58.1408 50.4366 58.0189 50.9242C57.897 51.4117 57.7142 51.8384 57.4704 52.1736C57.2266 52.5088 56.8609 52.7831 56.4343 52.9964C56.0076 53.2097 55.4896 53.3011 54.8496 53.3011C54.3925 53.3011 53.9354 53.2097 53.5393 53.0573C53.1431 52.9049 52.7774 52.6612 52.5032 52.3869C52.1984 52.1126 51.9851 51.7774 51.8023 51.3813C51.6194 50.9851 51.5585 50.5585 51.5585 50.1014V49.37H53.4783V49.9795C53.4783 50.3452 53.5697 50.6499 53.7831 50.9242C53.9964 51.1984 54.3316 51.3508 54.8192 51.3508C55.1544 51.3508 55.3982 51.2898 55.581 51.1984C55.7638 51.107 55.9162 50.9851 56.0076 50.8023C56.0991 50.6194 56.16 50.4061 56.1905 50.1623C56.2209 49.9185 56.2209 49.6443 56.2209 49.3395C56.2209 48.9738 56.2209 48.6996 56.1905 48.4558C56.16 48.2425 56.0991 48.0596 56.0381 47.9073C55.9467 47.7549 55.8553 47.6635 55.7029 47.5721C55.5505 47.4806 55.3677 47.3892 55.1239 47.2978L53.7526 46.7797C52.9298 46.4445 52.3508 45.9874 52.0765 45.4389C51.8023 44.8904 51.6499 44.159 51.6499 43.3362C51.6499 42.8182 51.7108 42.3611 51.8632 41.9039C52.0156 41.4468 52.1984 41.0507 52.4727 40.7155C52.7469 40.3803 53.0822 40.1365 53.5088 39.9232C53.9354 39.7403 54.423 39.6184 54.9715 39.6184C55.4591 39.6184 55.8857 39.7098 56.2819 39.8927C56.6781 40.0755 57.0133 40.2888 57.318 40.5936C57.5923 40.8983 57.8056 41.2031 57.9579 41.5687C58.1103 41.9344 58.1713 42.3001 58.1713 42.6658V43.6105H56.2514V43.1838C56.2514 42.7267 56.16 42.3611 55.9467 42.0258Z" fill="white"/>
<circle cx="46.5" cy="46.5" r="46" stroke="#E25038" stroke-opacity="0.37"/>
</svg>
