<svg width="61" height="46" viewBox="0 0 61 46" fill="none" xmlns="http://www.w3.org/2000/svg">
<path d="M37.9128 33.1099C37.4761 33.1084 37.0499 32.9757 36.6895 32.7292C36.329 32.4827 36.0509 32.1336 35.8912 31.7272C35.7314 31.3208 35.6974 30.8757 35.7935 30.4498C35.8896 30.0238 36.1114 29.6365 36.4302 29.338C37.3085 28.5218 38.009 27.5333 38.488 26.4341C38.967 25.335 39.2142 24.1489 39.2142 22.9499C39.2142 21.7509 38.967 20.5648 38.488 19.4657C38.009 18.3666 37.3085 17.378 36.4302 16.5618C36.198 16.3735 36.0071 16.1396 35.8691 15.8744C35.7312 15.6092 35.6493 15.3185 35.6285 15.0203C35.6076 14.7221 35.6483 14.4228 35.748 14.1411C35.8478 13.8593 36.0043 13.601 36.2081 13.3823C36.4118 13.1636 36.6583 12.9891 36.9324 12.8697C37.2064 12.7502 37.502 12.6884 37.8009 12.6881C38.0998 12.6878 38.3956 12.7489 38.6699 12.8677C38.9442 12.9865 39.1911 13.1604 39.3953 13.3786C40.7127 14.603 41.7635 16.0858 42.482 17.7345C43.2005 19.3832 43.5714 21.1624 43.5714 22.9608C43.5714 24.7593 43.2005 26.5384 42.482 28.1871C41.7635 29.8358 40.7127 31.3187 39.3953 32.543C38.9899 32.9115 38.4606 33.1139 37.9128 33.1099Z" fill="white"/>
<path d="M23.0873 33.1098C22.5364 33.1079 22.0068 32.8976 21.6047 32.5212C20.2873 31.2968 19.2365 29.814 18.518 28.1653C17.7995 26.5166 17.4286 24.7375 17.4286 22.939C17.4286 21.1405 17.7995 19.3614 18.518 17.7127C19.2365 16.064 20.2873 14.5812 21.6047 13.3568C21.8089 13.1386 22.0558 12.9647 22.3301 12.8459C22.6044 12.7271 22.9002 12.6659 23.1991 12.6663C23.498 12.6666 23.7937 12.7284 24.0677 12.8478C24.3417 12.9673 24.5882 13.1417 24.792 13.3605C24.9957 13.5792 25.1523 13.8374 25.252 14.1192C25.3517 14.401 25.3924 14.7003 25.3716 14.9985C25.3507 15.2967 25.2688 15.5874 25.1309 15.8525C24.993 16.1177 24.802 16.3517 24.5698 16.54C23.6916 17.3562 22.9911 18.3448 22.512 19.4439C22.033 20.543 21.7858 21.7291 21.7858 22.9281C21.7858 24.1271 22.033 25.3132 22.512 26.4123C22.9911 27.5114 23.6916 28.5 24.5698 29.3162C24.8886 29.6147 25.1104 30.002 25.2065 30.4279C25.3026 30.8539 25.2686 31.299 25.1089 31.7054C24.9491 32.1118 24.671 32.4609 24.3106 32.7074C23.9501 32.9539 23.5239 33.0865 23.0873 33.088V33.1098Z" fill="white"/>
<path d="M43.8431 39.498C43.4065 39.4965 42.9803 39.3639 42.6198 39.1174C42.2594 38.8708 41.9813 38.5217 41.8215 38.1153C41.6618 37.7089 41.6277 37.2639 41.7239 36.8379C41.82 36.4119 42.0418 36.0246 42.3606 35.7262C44.1136 34.0939 45.5117 32.1181 46.4676 29.9219C47.4236 27.7257 47.9169 25.3561 47.9169 22.9608C47.9169 20.5656 47.4236 18.196 46.4676 15.9998C45.5117 13.8035 44.1136 11.8277 42.3606 10.1955C42.1501 10.0008 41.9801 9.76658 41.8602 9.50617C41.7403 9.24577 41.6728 8.96429 41.6617 8.67782C41.6505 8.39135 41.6959 8.10548 41.7953 7.83656C41.8946 7.56763 42.046 7.3209 42.2407 7.11046C42.4354 6.90002 42.6696 6.72999 42.93 6.61007C43.1904 6.49016 43.4719 6.42271 43.7583 6.41157C44.0448 6.40044 44.3307 6.44584 44.5996 6.54518C44.8685 6.64452 45.1153 6.79586 45.3257 6.99055C47.5213 9.03111 49.2726 11.5025 50.4701 14.2503C51.6677 16.9981 52.2858 19.9634 52.2858 22.9608C52.2858 25.9583 51.6677 28.9235 50.4701 31.6714C49.2726 34.4192 47.5213 36.8906 45.3257 38.9311C44.9203 39.2996 44.391 39.502 43.8431 39.498Z" fill="white"/>
<path d="M17.1569 39.498C16.6061 39.4961 16.0764 39.2857 15.6743 38.9093C13.4787 36.8687 11.7274 34.3974 10.5298 31.6495C9.33231 28.9017 8.71423 25.9364 8.71423 22.939C8.71423 19.9416 9.33231 16.9763 10.5298 14.2285C11.7274 11.4807 13.4787 9.00928 15.6743 6.96872C16.0993 6.57552 16.6631 6.36726 17.2416 6.38974C17.8202 6.41223 18.3661 6.66363 18.7593 7.08864C19.1525 7.51364 19.3608 8.07743 19.3383 8.65599C19.3158 9.23455 19.0644 9.78048 18.6394 10.1737C16.8864 11.8059 15.4883 13.7817 14.5324 15.9779C13.5764 18.1742 13.0831 20.5437 13.0831 22.939C13.0831 25.3343 13.5764 27.7039 14.5324 29.9001C15.4883 32.0963 16.8864 34.0721 18.6394 35.7043C18.9582 36.0028 19.18 36.3901 19.2761 36.8161C19.3722 37.2421 19.3382 37.6871 19.1785 38.0935C19.0187 38.4999 18.7406 38.849 18.3802 39.0955C18.0197 39.342 17.5935 39.4747 17.1569 39.4762V39.498Z" fill="white"/>
<path d="M49.7733 45.8861C49.3319 45.8894 48.8999 45.7586 48.5344 45.511C48.1689 45.2634 47.8872 44.9107 47.7265 44.4995C47.5658 44.0883 47.5337 43.6381 47.6345 43.2083C47.7352 42.7785 47.9641 42.3894 48.2908 42.0925C50.922 39.644 53.0206 36.6797 54.4556 33.3843C55.8905 30.0889 56.6311 26.5333 56.6311 22.939C56.6311 19.3448 55.8905 15.7891 54.4556 12.4937C53.0206 9.19838 50.922 6.23403 48.2908 3.78558C48.0803 3.59089 47.9103 3.35665 47.7904 3.09625C47.6705 2.83584 47.603 2.55437 47.5919 2.26789C47.5807 1.98142 47.6261 1.69556 47.7255 1.42663C47.8248 1.15771 47.9762 0.910978 48.1709 0.700538C48.5641 0.275534 49.11 0.0241355 49.6885 0.00164736C49.975 -0.00948763 50.2609 0.0359112 50.5298 0.135252C50.7987 0.234593 51.0455 0.385931 51.2559 0.580624C54.3298 3.43741 56.7816 6.89734 58.4581 10.7443C60.1347 14.5913 61 18.7426 61 22.939C61 27.1354 60.1347 31.2868 58.4581 35.1337C56.7816 38.9807 54.3298 42.4406 51.2559 45.2974C50.8538 45.6739 50.3241 45.8842 49.7733 45.8861Z" fill="white"/>
<path d="M11.2266 45.8861C10.6788 45.8901 10.1495 45.6878 9.74408 45.3192C6.6702 42.4625 4.21841 39.0025 2.54186 35.1556C0.865302 31.3086 0 27.1573 0 22.9608C0 18.7644 0.865302 14.6131 2.54186 10.7661C4.21841 6.91917 6.6702 3.45924 9.74408 0.602453C10.1691 0.209252 10.7329 0.000988614 11.3114 0.0234767C11.89 0.0459649 12.4359 0.297362 12.8291 0.722366C13.2223 1.14737 13.4306 1.71117 13.4081 2.28972C13.3856 2.86828 13.1342 3.41421 12.7092 3.80741C10.0779 6.25586 7.97937 9.22021 6.5444 12.5156C5.10944 15.8109 4.36887 19.3666 4.36887 22.9608C4.36887 26.5551 5.10944 30.1108 6.5444 33.4061C7.97937 36.7015 10.0779 39.6658 12.7092 42.1143C13.0359 42.4112 13.2648 42.8003 13.3655 43.2301C13.4663 43.6599 13.4342 44.1102 13.2735 44.5213C13.1128 44.9325 12.8311 45.2852 12.4656 45.5328C12.1001 45.7804 11.6681 45.9112 11.2266 45.9079V45.8861Z" fill="white"/>
<path d="M30.5 27.3104C32.9082 27.3104 34.8604 25.3581 34.8604 22.9499C34.8604 20.5417 32.9082 18.5894 30.5 18.5894C28.0917 18.5894 26.1395 20.5417 26.1395 22.9499C26.1395 25.3581 28.0917 27.3104 30.5 27.3104Z" fill="white"/>
</svg>
